<?xml version="1.0" standalone="no"?>
<!DOCTYPE svg PUBLIC "-//W3C//DTD SVG 20010904//EN"
 "http://www.w3.org/TR/2001/REC-SVG-20010904/DTD/svg10.dtd">
<svg version="1.0" xmlns="http://www.w3.org/2000/svg"
 width="800.000000pt" height="800.000000pt" viewBox="0 0 800.000000 800.000000"
 preserveAspectRatio="xMidYMid meet">
<metadata>
Created by potrace 1.14, written by Peter Selinger 2001-2017
</metadata>
<g transform="translate(0.000000,800.000000) scale(0.100000,-0.100000)"
fill="#000000" stroke="none">
<path d="M2790 6905 l0 -185 -187 -2 -188 -3 -3 -377 -2 -378 -185 0 -185 0 0
-567 0 -568 39 -27 38 -27 327 0 c179 0 331 -3 336 -6 6 -4 10 -69 10 -156 l0
-149 -190 0 -190 0 0 -190 0 -190 -185 0 -185 0 -1 -162 c-1 -90 0 -173 1
-185 l1 -23 -190 0 -191 0 0 -757 1 -758 39 -27 38 -28 330 0 c255 0 331 3
335 13 3 6 6 -63 6 -155 l1 -168 -185 0 -185 0 0 -190 0 -190 -190 0 -190 0 0
-189 0 -189 31 -26 c17 -14 40 -28 52 -31 12 -3 351 -4 752 -3 l730 3 1 375 1
375 166 0 c92 0 167 4 167 9 0 5 6 3 13 -3 8 -6 17 -8 20 -4 4 3 7 89 7 190 0
139 3 183 13 183 6 1 159 0 339 0 257 -1 327 2 331 12 3 7 6 -63 6 -157 l1
-169 32 -28 c18 -15 42 -28 53 -29 11 0 74 0 140 1 67 0 129 -2 138 -6 16 -6
17 -35 17 -349 l0 -343 35 -31 35 -31 745 0 c583 0 745 3 745 13 1 6 1 90 1
185 0 172 0 174 -26 208 l-26 34 -162 0 -162 0 3 152 3 153 -31 38 -31 37
-160 0 -160 0 3 152 3 153 375 5 375 5 -2 25 c-1 14 -2 270 -2 570 0 998 3
898 -26 937 l-26 33 -162 0 -162 0 3 151 c3 149 3 151 -23 185 l-26 34 -522 0
c-287 0 -528 4 -536 9 -7 5 -11 13 -8 18 4 6 -4 8 -20 5 l-26 -5 22 22 c25 25
28 75 6 97 -23 24 -18 37 11 30 l26 -7 -19 25 c-10 14 -24 26 -31 26 -22 0 -2
20 21 20 16 0 18 3 9 12 -7 7 -12 25 -12 41 0 23 4 28 23 27 12 -1 181 -2 375
-1 l352 1 0 185 0 185 188 2 187 3 3 187 2 188 188 2 187 3 -2 153 c-1 84 -5
158 -9 163 -3 5 -1 16 5 23 8 9 4 22 -15 49 -13 20 -30 37 -37 38 -7 0 -57 0
-113 -1 -56 -1 -124 2 -153 6 l-51 7 0 145 c0 141 -1 147 -26 184 l-27 38
-343 0 c-234 0 -345 3 -349 11 -5 8 -8 201 -5 301 0 3 168 7 373 7 l372 1 3
181 2 181 -31 39 -31 39 -534 0 -534 0 0 148 c0 141 -1 149 -25 185 l-26 37
-944 0 -945 0 0 -185z"/>
</g>
</svg>
