<?xml version="1.0" standalone="no"?>
<!DOCTYPE svg PUBLIC "-//W3C//DTD SVG 20010904//EN"
 "http://www.w3.org/TR/2001/REC-SVG-20010904/DTD/svg10.dtd">
<svg version="1.0" xmlns="http://www.w3.org/2000/svg"
 width="1080.000000pt" height="1080.000000pt" viewBox="0 0 1080.000000 1080.000000"
 preserveAspectRatio="xMidYMid meet">
<metadata>
Created by potrace 1.14, written by Peter Selinger 2001-2017
</metadata>
<g transform="translate(0.000000,1080.000000) scale(0.100000,-0.100000)"
fill="#000000" stroke="none">
<path d="M4187 8589 c-67 -16 -95 -38 -171 -132 -41 -50 -101 -115 -133 -143
-76 -66 -108 -131 -128 -257 -26 -163 -44 -199 -144 -297 -48 -47 -95 -101
-104 -120 -9 -20 -25 -90 -37 -155 -26 -150 -61 -227 -128 -281 -111 -90 -127
-119 -142 -256 -6 -51 -20 -122 -32 -158 -19 -59 -30 -74 -118 -160 -109 -107
-133 -153 -150 -288 -19 -151 -39 -195 -121 -272 -93 -88 -87 -134 27 -221 39
-30 71 -66 94 -105 87 -149 115 -168 264 -184 59 -6 132 -20 162 -31 45 -17
61 -31 109 -94 94 -126 124 -141 302 -155 168 -14 211 -38 265 -145 55 -111
72 -120 274 -139 182 -18 234 -39 288 -120 46 -69 114 -129 163 -144 21 -6 89
-16 149 -21 173 -15 216 -40 269 -159 39 -87 105 -121 236 -122 142 0 250 -42
302 -117 66 -96 89 -115 203 -168 119 -57 172 -104 196 -174 15 -46 23 -813
10 -979 -12 -144 -38 -217 -99 -284 -53 -56 -116 -83 -193 -82 -73 0 -109 21
-200 115 -41 42 -88 84 -105 92 -17 8 -75 17 -135 20 -178 9 -255 48 -319 161
-58 101 -126 146 -222 146 -26 0 -82 7 -124 15 -96 18 -162 58 -205 125 -41
63 -108 125 -151 138 -19 6 -72 13 -119 16 -143 9 -210 40 -337 158 -67 62
-108 79 -209 88 -130 13 -207 59 -318 190 -82 97 -124 121 -256 144 -211 37
-277 72 -324 171 -30 64 -33 115 -11 213 16 76 35 238 35 308 0 88 -61 136
-132 103 -22 -10 -77 -83 -107 -142 -8 -16 -47 -62 -88 -103 -64 -64 -79 -74
-109 -74 -20 0 -42 7 -50 15 -33 32 -191 3 -207 -38 -3 -7 -42 -38 -89 -70
-92 -63 -169 -86 -284 -87 -119 0 -193 -40 -259 -138 -28 -42 -114 -122 -131
-122 -16 0 -134 -62 -135 -71 -1 -5 -2 -15 -3 -21 -2 -17 75 -63 129 -78 53
-15 154 -91 198 -150 47 -61 124 -104 229 -129 136 -32 195 -67 257 -150 29
-39 66 -82 82 -96 42 -35 119 -55 213 -55 182 -1 257 -29 361 -139 56 -60 133
-99 210 -108 57 -7 155 -43 199 -74 17 -12 47 -44 66 -71 100 -143 131 -161
285 -164 61 -2 139 -8 174 -15 59 -11 70 -17 120 -68 31 -31 69 -72 86 -90 43
-49 97 -71 178 -71 46 0 93 -9 148 -27 77 -25 83 -29 172 -123 51 -54 107
-105 125 -114 19 -10 70 -22 115 -27 241 -26 310 -90 324 -296 l6 -83 522 0
523 0 7 82 c15 184 57 251 178 281 37 10 88 17 115 17 85 0 146 25 189 76 152
185 178 198 383 195 92 -1 110 2 155 23 27 14 77 53 110 86 90 94 119 105 307
120 165 13 197 32 300 180 65 93 105 111 263 120 158 10 199 28 270 122 28 37
61 75 75 86 41 32 116 52 213 58 113 7 212 30 252 57 17 12 59 49 95 83 82 78
118 96 258 129 138 33 186 62 262 163 62 81 75 93 150 122 52 21 279 50 386
50 l54 0 0 80 0 80 -72 0 c-97 0 -301 26 -363 46 -68 22 -107 54 -156 125 -72
107 -144 142 -314 153 -49 4 -111 13 -137 22 -46 15 -60 27 -172 150 -43 48
-76 68 -207 128 -50 23 -84 62 -108 124 -19 49 -21 73 -21 315 0 349 11 466
52 592 26 80 33 117 33 181 0 106 -24 145 -126 204 -62 37 -77 52 -124 123
-60 93 -76 110 -159 162 -72 46 -96 71 -135 139 -34 61 -90 114 -152 144 -61
30 -81 50 -129 131 -36 63 -110 141 -133 141 -31 0 -150 71 -202 120 -73 70
-119 94 -210 109 -38 7 -94 16 -122 21 -84 14 -123 38 -215 132 -102 104 -143
126 -266 138 -154 16 -199 39 -323 163 -104 104 -110 107 -272 127 -138 17
-187 50 -295 199 -34 48 -67 77 -127 117 -126 80 -208 189 -239 314 -9 36 -24
76 -34 89 -9 13 -21 31 -27 40 -5 9 -14 19 -20 23 -13 10 -45 -21 -45 -44 0
-10 -4 -18 -9 -18 -4 0 -14 -28 -21 -62 -13 -62 -43 -133 -61 -144 -5 -3 -9
-14 -9 -25 0 -10 -4 -19 -10 -19 -5 0 -10 -7 -10 -15 0 -8 -2 -15 -5 -15 -12
0 -69 33 -124 71 -31 21 -61 39 -68 39 -23 0 -196 60 -222 76 -14 9 -57 50
-95 91 -73 79 -103 99 -181 119 -56 15 -74 16 -128 3z m3386 -2228 c68 -47
143 -132 166 -186 30 -73 61 -208 68 -300 7 -97 -11 -245 -37 -295 -24 -46
-85 -102 -148 -134 -56 -29 -96 -70 -141 -149 -65 -114 -157 -166 -268 -153
-157 18 -240 142 -203 301 14 60 52 88 156 114 123 30 141 38 165 78 35 56 40
95 48 368 7 231 10 265 28 306 11 25 28 53 38 62 26 26 80 21 128 -12z m344
-1394 c60 -32 107 -108 132 -216 30 -132 44 -283 37 -401 -11 -184 -45 -251
-158 -310 -86 -45 -123 -82 -168 -170 -26 -50 -50 -83 -73 -98 -44 -29 -152
-52 -252 -52 -147 0 -185 -21 -241 -133 -43 -84 -93 -120 -193 -137 -88 -16
-164 4 -216 55 -54 54 -69 91 -69 165 -1 107 40 156 146 180 118 25 142 34
174 66 48 49 56 106 58 414 2 303 8 332 68 348 20 5 44 5 62 -1 48 -16 75 -70
167 -334 48 -139 163 -202 231 -126 30 33 39 113 46 398 8 315 7 311 84 352
54 29 112 29 165 0z m-5482 -477 c-3 -5 9 -17 27 -26 76 -38 138 -123 138
-188 0 -85 -111 -142 -226 -117 -73 17 -107 61 -106 137 2 79 65 174 116 174
9 0 16 7 16 15 0 8 9 15 21 15 11 0 18 -4 14 -10z"/>
<path d="M3652 4895 c-55 -17 -78 -38 -108 -97 -17 -34 -24 -64 -24 -106 0
-110 53 -193 151 -237 69 -31 125 -30 161 2 52 47 90 170 91 293 1 88 -21 139
-63 151 -42 12 -163 8 -208 -6z"/>
<path d="M4850 4343 c-55 -9 -97 -27 -128 -57 -44 -40 -58 -69 -67 -133 -15
-114 45 -218 155 -267 70 -32 127 -29 161 7 99 105 123 404 35 436 -27 10
-123 18 -156 14z"/>
</g>
</svg>
